<?xml version="1.0" encoding="utf-8"?>
<!-- Generator: Adobe Illustrator 18.0.0, SVG Export Plug-In . SVG Version: 6.00 Build 0)  -->
<!DOCTYPE svg PUBLIC "-//W3C//DTD SVG 1.1//EN" "http://www.w3.org/Graphics/SVG/1.1/DTD/svg11.dtd">
<svg version="1.1" id="Layer_1" xmlns="http://www.w3.org/2000/svg" xmlns:xlink="http://www.w3.org/1999/xlink" x="0px" y="0px"
	 viewBox="0 0 29.4 29.4" enable-background="new 0 0 29.4 29.4" xml:space="preserve">
<circle fill="none" stroke="#ED1C5F" stroke-miterlimit="10" cx="14.7" cy="14.7" r="4.7"/>
<path fill="none" stroke="#ED1C5F" stroke-linejoin="round" stroke-miterlimit="10" d="M24.8,11.5c-0.2-0.5-0.4-1-0.6-1.5l2.4-3.5
	c0,0-0.9-0.9-1.8-1.8C23.9,3.8,23,2.9,23,2.9l-3.5,2.4C19,5,18.5,4.8,18,4.6l-0.8-4.1c0,0-1.2,0-2.5,0s-2.5,0-2.5,0l-0.8,4.1
	c-0.5,0.2-1,0.4-1.5,0.6L6.4,2.9c0,0-0.9,0.9-1.8,1.8C3.8,5.5,2.9,6.4,2.9,6.4l2.4,3.5c-0.3,0.5-0.5,1-0.6,1.5l-4.1,0.8
	c0,0,0,1.2,0,2.5s0,2.5,0,2.5L4.6,18c0.2,0.5,0.4,1,0.6,1.5L2.9,23c0,0,0.9,0.9,1.8,1.8s1.8,1.8,1.8,1.8l3.5-2.4
	c0.5,0.3,1,0.5,1.5,0.6l0.8,4.1c0,0,1.2,0,2.5,0s2.5,0,2.5,0l0.8-4.1c0.5-0.2,1-0.4,1.5-0.6l3.5,2.4c0,0,0.9-0.9,1.8-1.8
	c0.9-0.9,1.8-1.8,1.8-1.8l-2.4-3.5c0.3-0.5,0.5-1,0.6-1.5l4.1-0.8c0,0,0-1.2,0-2.5s0-2.5,0-2.5L24.8,11.5z"/>
</svg>
