<?xml version="1.0" encoding="utf-8"?>
<!-- Generator: Adobe Illustrator 18.0.0, SVG Export Plug-In . SVG Version: 6.00 Build 0)  -->
<!DOCTYPE svg PUBLIC "-//W3C//DTD SVG 1.1//EN" "http://www.w3.org/Graphics/SVG/1.1/DTD/svg11.dtd">
<svg version="1.1" id="Layer_1" xmlns="http://www.w3.org/2000/svg" xmlns:xlink="http://www.w3.org/1999/xlink" x="0px" y="0px"
	 viewBox="0 0 27.4 28" enable-background="new 0 0 27.4 28" xml:space="preserve">
<g>
	<line fill="none" stroke="#ED1C5F" stroke-miterlimit="10" x1="13.7" y1="0.6" x2="13.7" y2="7.4"/>
	<polyline fill="none" stroke="#ED1C5F" stroke-linejoin="round" stroke-miterlimit="10" points="10.2,4 13.7,0.5 17.2,4 	"/>
</g>
<g>
	<g>
		<line fill="none" stroke="#ED1C5F" stroke-miterlimit="10" x1="26.8" y1="6" x2="22" y2="10.8"/>
		<polyline fill="none" stroke="#ED1C5F" stroke-linejoin="round" stroke-miterlimit="10" points="21.9,5.9 26.9,5.9 26.9,10.9 		
			"/>
	</g>
	<g>
		<line fill="none" stroke="#ED1C5F" stroke-miterlimit="10" x1="0.6" y1="6" x2="5.4" y2="10.8"/>
		<polyline fill="none" stroke="#ED1C5F" stroke-linejoin="round" stroke-miterlimit="10" points="5.4,5.9 0.5,5.9 0.5,10.9 		"/>
	</g>
</g>
<path fill="none" stroke="#ED1C5F" stroke-miterlimit="10" d="M10.5,20c-0.2,0.1-0.7,0.2-1.3,0.3c-0.4,0.1-0.8,0.2-1.2,0.3
	c-2.3,0.6-2.3,2.8-2.3,2.9l0,4l15.8,0v-4c0,0,0-2.2-2.3-2.9c-0.4-0.1-0.8-0.2-1.3-0.3c-0.5-0.1-1-0.2-1.2-0.3c0,0-0.4-0.2-0.5-0.9
	c0.1-0.6,0.2-0.9,0.3-1.2c0.6-0.2,0.8-1,0.8-1.3c0-0.2,0.1-0.4,0.1-0.6c0.1-0.5,0.2-0.9,0-1.3c0-0.1-0.1-0.1-0.2-0.1
	c0.1-0.6,0.2-1.5-0.4-2.5c-0.7-1.1-1.8-1.6-3.2-1.6h-0.1c-1.4,0-2.5,0.5-3.2,1.6C9.8,13,9.9,13.9,10,14.5c-0.1,0-0.1,0.1-0.2,0.1
	c-0.3,0.4-0.2,0.8,0,1.3c0,0.2,0.1,0.4,0.1,0.6c0.1,0.3,0.2,1,0.8,1.3c0.1,0.3,0.3,0.6,0.3,1.2C11,19.8,10.6,20,10.5,20"/>
</svg>
