<?xml version="1.0" encoding="utf-8"?>
<!-- Generator: Adobe Illustrator 18.0.0, SVG Export Plug-In . SVG Version: 6.00 Build 0)  -->
<!DOCTYPE svg PUBLIC "-//W3C//DTD SVG 1.1//EN" "http://www.w3.org/Graphics/SVG/1.1/DTD/svg11.dtd">
<svg version="1.1" id="Layer_1" xmlns="http://www.w3.org/2000/svg" xmlns:xlink="http://www.w3.org/1999/xlink" x="0px" y="0px"
	 viewBox="0 0 29.5 29.8" enable-background="new 0 0 29.5 29.8" xml:space="preserve">
<path fill="none" stroke="#ED1C5F" stroke-miterlimit="10" d="M11.9,14.4c-0.2,0.1-0.7,0.2-1.2,0.3c-0.4,0.1-0.8,0.2-1.1,0.3
	c-2.1,0.6-2.1,2.6-2.1,2.6l0,3.7l14.6,0v-3.7c0,0,0-2.1-2.1-2.6c-0.4-0.1-0.8-0.2-1.2-0.3c-0.5-0.1-0.9-0.2-1.1-0.3
	c0,0-0.4-0.2-0.4-0.9c0.1-0.5,0.2-0.9,0.3-1.1c0.5-0.2,0.7-0.9,0.7-1.2c0-0.2,0.1-0.4,0.1-0.6c0.1-0.5,0.2-0.8,0-1.2
	c0-0.1-0.1-0.1-0.2-0.1c0.1-0.5,0.2-1.4-0.4-2.3c-0.6-1-1.6-1.5-2.9-1.5h-0.1c-1.3,0-2.3,0.5-2.9,1.5c-0.6,0.9-0.5,1.7-0.4,2.3
	c-0.1,0-0.1,0.1-0.2,0.1c-0.3,0.3-0.2,0.7,0,1.2c0,0.2,0.1,0.3,0.1,0.5c0,0.3,0.2,1,0.7,1.2c0.1,0.3,0.2,0.6,0.3,1.1
	C12.3,14.2,11.9,14.3,11.9,14.4"/>
<g>
	<polyline fill="none" stroke="#ED1C5F" stroke-linejoin="round" stroke-miterlimit="10" points="24.4,0 24.4,4.7 19.7,4.7 	"/>
	<polyline fill="none" stroke="#ED1C5F" stroke-linejoin="round" stroke-miterlimit="10" points="4.1,29.3 4.1,24.6 8.8,24.5 	"/>
	<path fill="none" stroke="#ED1C5F" stroke-miterlimit="10" d="M4.5,24.9c2.6,2.7,6.2,4.4,10.3,4.4C22.6,29.3,29,22.9,29,15
		c0-2.2-0.5-4.2-1.4-6"/>
	<path fill="none" stroke="#ED1C5F" stroke-miterlimit="10" d="M24.4,4.5c-2.5-2.4-5.9-3.8-9.7-3.8C6.9,0.7,0.5,7.1,0.5,15
		c0,1.9,0.4,3.8,1.1,5.5"/>
</g>
</svg>
