<?xml version="1.0" encoding="utf-8"?>
<!-- Generator: Adobe Illustrator 18.0.0, SVG Export Plug-In . SVG Version: 6.00 Build 0)  -->
<!DOCTYPE svg PUBLIC "-//W3C//DTD SVG 1.1//EN" "http://www.w3.org/Graphics/SVG/1.1/DTD/svg11.dtd">
<svg version="1.1" id="Layer_1" xmlns="http://www.w3.org/2000/svg" xmlns:xlink="http://www.w3.org/1999/xlink" x="0px" y="0px"
	 viewBox="395.7 410.2 28.9 28.9" enable-background="new 395.7 410.2 28.9 28.9" xml:space="preserve">
<g>
	<g>
		<g>
			<g>
				<g>
					<polyline fill="none" stroke="#ED1C5F" stroke-miterlimit="10" points="407.3,413.8 410.2,410.9 413,413.8 					"/>
					<line fill="none" stroke="#ED1C5F" stroke-miterlimit="10" x1="410.2" y1="417.1" x2="410.2" y2="411.5"/>
				</g>
				<g>
					<polyline fill="none" stroke="#ED1C5F" stroke-miterlimit="10" points="412.9,435.6 410.2,438.4 407.3,435.6 					"/>
					<line fill="none" stroke="#ED1C5F" stroke-miterlimit="10" x1="410.2" y1="432.2" x2="410.2" y2="437.8"/>
				</g>
			</g>
			<g>
				<g>
					<polyline fill="none" stroke="#ED1C5F" stroke-miterlimit="10" points="399.2,427.5 396.4,424.7 399.2,421.9 					"/>
					<line fill="none" stroke="#ED1C5F" stroke-miterlimit="10" x1="402.6" y1="424.7" x2="397" y2="424.7"/>
				</g>
				<g>
					<polyline fill="none" stroke="#ED1C5F" stroke-miterlimit="10" points="421.1,421.9 423.9,424.7 421.1,427.5 					"/>
					<line fill="none" stroke="#ED1C5F" stroke-miterlimit="10" x1="417.7" y1="424.7" x2="423.3" y2="424.7"/>
				</g>
			</g>
		</g>
		<g>
			<g>
				<g>
					<polyline fill="none" stroke="#ED1C5F" stroke-miterlimit="10" points="400.5,418.9 400.5,415 404.4,415 					"/>
					<line fill="none" stroke="#ED1C5F" stroke-miterlimit="10" x1="404.8" y1="419.3" x2="400.8" y2="415.4"/>
				</g>
				<g>
					<polyline fill="none" stroke="#ED1C5F" stroke-miterlimit="10" points="419.8,430.4 419.8,434.4 415.9,434.4 					"/>
					<line fill="none" stroke="#ED1C5F" stroke-miterlimit="10" x1="415.4" y1="430" x2="419.5" y2="434"/>
				</g>
			</g>
			<g>
				<g>
					<polyline fill="none" stroke="#ED1C5F" stroke-miterlimit="10" points="404.4,434.4 400.5,434.4 400.5,430.4 					"/>
					<line fill="none" stroke="#ED1C5F" stroke-miterlimit="10" x1="404.8" y1="430" x2="400.8" y2="434"/>
				</g>
				<g>
					<polyline fill="none" stroke="#ED1C5F" stroke-miterlimit="10" points="415.9,415 419.8,415 419.8,418.9 					"/>
					<line fill="none" stroke="#ED1C5F" stroke-miterlimit="10" x1="415.5" y1="419.4" x2="419.5" y2="415.4"/>
				</g>
			</g>
		</g>
	</g>
	<circle fill="none" stroke="#ED1C5F" stroke-miterlimit="10" cx="410.2" cy="424.7" r="4.6"/>
</g>
</svg>
